<?xml version="1.0" encoding="UTF-8"?>
<svg id="Livello_1" xmlns="http://www.w3.org/2000/svg" version="1.1" viewBox="0 0 545.13 176.86">
  <!-- Generator: Adobe Illustrator 30.6.0, SVG Export Plug-In . SVG Version: 2.1.4 Build 109)  -->
  <defs>
    <style>
      .st0 {
        fill: #e7e9ef;
      }

      .st1 {
        fill: #8989c2;
      }
    </style>
  </defs>
  <g>
    <path class="st1" d="M0,116L18.37,2.55h42.35l13.27,46.43c1.7,5.95,2.38,11.57,2.55,13.1h1.02c.17-4.93.85-8.33,2.21-13.1L93.04,2.55h42.01l18.54,113.45h-39.63l-5.1-50.86c-.34-3.91-.68-6.46-.68-11.23h-.68c-.51,2.89-1.53,7.31-2.21,9.52l-16.84,52.56h-24.15l-15.14-49.67c-1.19-4.08-2.04-7.65-2.21-12.42h-1.19c0,2.21,0,6.63-.17,8.84l-5.61,53.24H0Z"/>
    <path class="st1" d="M269.93,100.35c-9.7,9.87-25.51,18.2-47.12,18.2s-37.42-8.33-47.11-18.2c-8.84-9.01-15.82-22.96-15.82-41.16s6.97-31.98,15.82-40.99C185.4,8.33,201.21,0,222.81,0s37.42,8.33,47.12,18.2c8.84,9.02,15.82,22.96,15.82,40.99s-6.97,32.15-15.82,41.16ZM208.02,42.35c-4.08,4.25-6.46,10.89-6.46,17.01,0,6.46,2.38,12.76,6.46,16.84,3.4,3.4,8.5,5.78,14.8,5.78s11.4-2.38,14.8-5.78c3.74-3.74,6.46-9.7,6.46-16.84s-2.38-13.1-6.46-17.01c-3.06-3.06-7.99-5.78-14.8-5.78-7.31,0-12.08,2.89-14.8,5.78Z"/>
    <path class="st1" d="M404.98,100.35c-9.7,9.87-25.51,18.2-47.12,18.2s-37.42-8.33-47.12-18.2c-8.84-9.01-15.82-22.96-15.82-41.16s6.97-31.98,15.82-40.99c9.7-9.87,25.51-18.2,47.12-18.2s37.42,8.33,47.12,18.2c8.84,9.02,15.82,22.96,15.82,40.99s-6.97,32.15-15.82,41.16ZM343.06,42.35c-4.08,4.25-6.46,10.89-6.46,17.01,0,6.46,2.38,12.76,6.46,16.84,3.4,3.4,8.5,5.78,14.8,5.78s11.4-2.38,14.8-5.78c3.74-3.74,6.46-9.7,6.46-16.84s-2.38-13.1-6.46-17.01c-3.06-3.06-7.99-5.78-14.8-5.78-7.31,0-12.08,2.89-14.8,5.78Z"/>
    <path class="st1" d="M431.68,116V2.55h39.29l26.36,42.86c4.25,6.8,6.97,11.23,10.72,20.07h1.19c-1.7-7.14-3.57-18.54-3.57-26.87V2.55h39.46v113.45h-39.46l-28.23-44.73c-2.55-4.08-5.61-10.04-7.82-14.8h-1.19c1.19,6.12,2.55,15.82,2.55,20.92v38.61h-39.29Z"/>
  </g>
  <g>
    <path class="st0" d="M175.26,137.63v27.77h-6.5v-27.77h-7.5v-5.6h21.51v5.6h-7.5Z"/>
    <path class="st0" d="M183.86,143.74h6.1v3.25c.95-1.85,2.25-2.75,2.7-3,.95-.6,2.15-.95,3.6-.95,1.05,0,1.9.25,2.6.5l-.8,5.7c-.8-.55-1.6-.8-2.85-.8-1.15,0-2.85.25-4.05,1.75-1.15,1.45-1.2,3.3-1.2,4.8v10.41h-6.1v-21.66Z"/>
    <path class="st0" d="M217.98,143.74h6.1v21.66h-6.1v-2.8c-2.2,3.15-5.1,3.5-6.65,3.5-6.65,0-11.06-5.2-11.06-11.56s4.35-11.51,10.76-11.51c1.65,0,4.9.3,6.95,3.5v-2.8ZM206.57,154.54c0,3.45,2.5,6.15,6,6.15s6-2.7,6-6.15-2.5-6.1-6-6.1-6,2.65-6,6.1Z"/>
    <path class="st0" d="M252.95,137.63v27.77h-6.5v-27.77h-7.51v-5.6h21.51v5.6h-7.5Z"/>
    <path class="st0" d="M281.96,159.35c-.65,1.6-3.1,6.75-10.66,6.75-3.5,0-6.15-1-8.31-3.05-2.4-2.25-3.4-5.05-3.4-8.46,0-4.3,1.75-6.96,3.3-8.51,2.55-2.5,5.55-3.05,8.16-3.05,4.4,0,6.96,1.75,8.46,3.55,2.3,2.75,2.6,6.15,2.6,8.51v.5h-16.21c0,1.3.35,2.7,1.05,3.65.65.9,2,2.05,4.35,2.05s4.05-1.1,5.05-2.85l5.6.9ZM276.36,151.69c-.5-2.95-2.9-4.35-5.15-4.35s-4.6,1.45-5.1,4.35h10.26Z"/>
    <path class="st0" d="M286.81,143.74h6.1v3.25c.95-1.85,2.25-2.75,2.7-3,.95-.6,2.15-.95,3.6-.95,1.05,0,1.9.25,2.6.5l-.8,5.7c-.8-.55-1.6-.8-2.85-.8-1.15,0-2.85.25-4.05,1.75-1.15,1.45-1.2,3.3-1.2,4.8v10.41h-6.1v-21.66Z"/>
    <path class="st0" d="M304.82,143.74h6.1v3.25c.95-1.85,2.25-2.75,2.7-3,.95-.6,2.15-.95,3.6-.95,1.05,0,1.9.25,2.6.5l-.8,5.7c-.8-.55-1.6-.8-2.85-.8-1.15,0-2.85.25-4.05,1.75-1.15,1.45-1.2,3.3-1.2,4.8v10.41h-6.1v-21.66Z"/>
    <path class="st0" d="M338.94,143.74h6.1v21.66h-6.1v-2.8c-2.2,3.15-5.1,3.5-6.65,3.5-6.65,0-11.06-5.2-11.06-11.56s4.35-11.51,10.76-11.51c1.65,0,4.9.3,6.95,3.5v-2.8ZM327.53,154.54c0,3.45,2.5,6.15,6,6.15s6-2.7,6-6.15-2.5-6.1-6-6.1-6,2.65-6,6.1Z"/>
    <path class="st0" d="M383.76,159.35c-.65,1.6-3.1,6.75-10.66,6.75-3.5,0-6.15-1-8.31-3.05-2.4-2.25-3.4-5.05-3.4-8.46,0-4.3,1.75-6.96,3.3-8.51,2.55-2.5,5.55-3.05,8.16-3.05,4.4,0,6.96,1.75,8.46,3.55,2.3,2.75,2.6,6.15,2.6,8.51v.5h-16.21c0,1.3.35,2.7,1.05,3.65.65.9,2,2.05,4.35,2.05s4.05-1.1,5.05-2.85l5.6.9ZM378.16,151.69c-.5-2.95-2.9-4.35-5.15-4.35s-4.6,1.45-5.1,4.35h10.26Z"/>
    <path class="st0" d="M417.58,139.63c-1.95-2.6-4.25-2.85-5.45-2.85-3.5,0-4.6,2.2-4.6,3.9,0,.8.25,1.55,1.05,2.25.8.75,1.9,1.15,4,1.9,2.6.9,5.05,1.8,6.75,3.35,1.5,1.35,2.85,3.6,2.85,7,0,6.5-4.7,10.96-11.61,10.96-6.15,0-9.76-3.75-11.51-6.3l4.25-4.05c1.6,3.25,4.65,4.45,7,4.45,2.95,0,5.15-1.8,5.15-4.6,0-1.2-.4-2.15-1.3-3-1.25-1.15-3.25-1.8-5.15-2.45-1.75-.6-3.85-1.4-5.55-2.9-1.1-.95-2.65-2.8-2.65-6.2,0-4.9,3.3-9.81,10.71-9.81,2.1,0,6.05.4,9.46,3.9l-3.4,4.45Z"/>
    <path class="st0" d="M433.09,176.86h-6.1v-33.12h6.1v2.8c.95-1.35,3.05-3.5,7.05-3.5,1.9,0,4.95.45,7.41,2.9,1.6,1.6,3.25,4.3,3.25,8.61,0,4.9-2.15,7.56-3.4,8.76-1.65,1.55-4.15,2.8-7.35,2.8-1.5,0-4.55-.25-6.96-3.5v14.26ZM434.54,149.89c-1.35,1.15-2.05,2.65-2.05,4.65s.8,3.65,2,4.7c.8.7,2.1,1.45,4,1.45,2,0,3.3-.8,4.1-1.55,1.3-1.2,1.9-3,1.9-4.6s-.65-3.4-1.85-4.55c-1.1-1-2.7-1.55-4.15-1.55-1.6,0-2.85.45-3.95,1.45Z"/>
    <path class="st0" d="M472.11,143.74h6.1v21.66h-6.1v-2.8c-2.2,3.15-5.1,3.5-6.65,3.5-6.65,0-11.06-5.2-11.06-11.56s4.35-11.51,10.76-11.51c1.65,0,4.9.3,6.95,3.5v-2.8ZM460.7,154.54c0,3.45,2.5,6.15,6,6.15s6-2.7,6-6.15-2.5-6.1-6-6.1-6,2.65-6,6.1Z"/>
    <path class="st0" d="M491.37,160.2h11.46v5.2h-22.17l12.31-16.46h-10.41v-5.2h21.11l-12.31,16.46Z"/>
    <path class="st0" d="M510.23,130.93c2,0,3.65,1.65,3.65,3.65s-1.65,3.65-3.65,3.65-3.65-1.65-3.65-3.65,1.65-3.65,3.65-3.65ZM513.28,143.74v21.66h-6.1v-21.66h6.1Z"/>
    <path class="st0" d="M539.14,146.09c2.15,1.95,3.65,4.95,3.65,8.51s-1.5,6.5-3.65,8.46c-1.85,1.7-4.65,3.05-8.76,3.05s-6.91-1.35-8.76-3.05c-2.15-1.95-3.65-4.95-3.65-8.46s1.5-6.55,3.65-8.51c1.85-1.7,4.65-3.05,8.76-3.05s6.9,1.35,8.76,3.05ZM536.49,154.59c0-3.4-2.6-6.15-6.1-6.15s-6.1,2.75-6.1,6.15,2.55,6.1,6.1,6.1,6.1-2.8,6.1-6.1Z"/>
  </g>
</svg>